<mxfile host="Electron" agent="Mozilla/5.0 (Windows NT 10.0; Win64; x64) AppleWebKit/537.36 (KHTML, like Gecko) draw.io/25.0.2 Chrome/128.0.6613.186 Electron/32.2.5 Safari/537.36" version="25.0.2">
  <diagram name="Страница — 1" id="sZh0EN6hKkNNVpzxl-IB">
    <mxGraphModel dx="524" dy="2395" grid="1" gridSize="10" guides="1" tooltips="1" connect="1" arrows="1" fold="1" page="1" pageScale="1" pageWidth="827" pageHeight="1169" math="0" shadow="0">
      <root>
        <mxCell id="0" />
        <mxCell id="1" parent="0" />
        <mxCell id="3_emPoVOIaigbRrFIrpy-18" style="edgeStyle=orthogonalEdgeStyle;rounded=0;orthogonalLoop=1;jettySize=auto;html=1;entryX=1;entryY=0.5;entryDx=0;entryDy=0;" edge="1" parent="1" source="3_emPoVOIaigbRrFIrpy-3" target="3_emPoVOIaigbRrFIrpy-4">
          <mxGeometry relative="1" as="geometry">
            <Array as="points">
              <mxPoint x="70" y="190" />
              <mxPoint x="70" y="440" />
              <mxPoint x="746" y="440" />
              <mxPoint x="746" y="245" />
            </Array>
          </mxGeometry>
        </mxCell>
        <mxCell id="3_emPoVOIaigbRrFIrpy-3" value="&lt;p style=&quot;margin:0px;margin-top:4px;text-align:center;&quot;&gt;&lt;b&gt;Course&lt;/b&gt;&lt;/p&gt;&lt;hr size=&quot;1&quot; style=&quot;border-style:solid;&quot;&gt;&lt;p style=&quot;margin:0px;margin-left:4px;&quot;&gt;&amp;nbsp;+ Name: string&lt;br/&gt;    + AssignedTeacher: Teacher&lt;br&gt;&lt;/p&gt;&lt;hr size=&quot;1&quot; style=&quot;border-style:solid;&quot;&gt;&lt;p style=&quot;margin:0px;margin-left:4px;&quot;&gt;    + Course(name: string, teacher: Teacher)&lt;br/&gt;&lt;/p&gt;" style="verticalAlign=top;align=left;overflow=fill;html=1;whiteSpace=wrap;" vertex="1" parent="1">
          <mxGeometry x="120" y="140" width="173" height="100" as="geometry" />
        </mxCell>
        <mxCell id="3_emPoVOIaigbRrFIrpy-17" style="edgeStyle=orthogonalEdgeStyle;rounded=0;orthogonalLoop=1;jettySize=auto;html=1;entryX=0.5;entryY=1;entryDx=0;entryDy=0;" edge="1" parent="1" source="3_emPoVOIaigbRrFIrpy-4" target="3_emPoVOIaigbRrFIrpy-3">
          <mxGeometry relative="1" as="geometry">
            <Array as="points">
              <mxPoint x="643" y="400" />
              <mxPoint x="207" y="400" />
            </Array>
          </mxGeometry>
        </mxCell>
        <mxCell id="3_emPoVOIaigbRrFIrpy-4" value="&lt;p style=&quot;margin:0px;margin-top:4px;text-align:center;&quot;&gt;&lt;b&gt;Teacher&lt;/b&gt;&lt;/p&gt;&lt;hr size=&quot;1&quot; style=&quot;border-style:solid;&quot;&gt;&lt;p style=&quot;margin:0px;margin-left:4px;&quot;&gt;+ Name: string&amp;nbsp;&lt;/p&gt;&lt;p style=&quot;margin:0px;margin-left:4px;&quot;&gt;+ Password: string&amp;nbsp;&lt;/p&gt;&lt;p style=&quot;margin:0px;margin-left:4px;&quot;&gt;+ Notes: List&amp;lt;string&amp;gt;&lt;/p&gt;&lt;hr size=&quot;1&quot; style=&quot;border-style:solid;&quot;&gt;&lt;p style=&quot;margin:0px;margin-left:4px;&quot;&gt;+ Teacher(name: string, password: string)&amp;nbsp;&lt;/p&gt;&lt;p style=&quot;margin:0px;margin-left:4px;&quot;&gt;+ NewCourse(courseName: string, courses: List&amp;lt;Course&amp;gt;)&lt;br/&gt;    + RateStudent(student: Student, feedback: string)&amp;nbsp;&lt;/p&gt;&lt;p style=&quot;margin:0px;margin-left:4px;&quot;&gt;+ MakeNote(note: string)&lt;br/&gt;&lt;/p&gt;" style="verticalAlign=top;align=left;overflow=fill;html=1;whiteSpace=wrap;" vertex="1" parent="1">
          <mxGeometry x="560" y="140" width="166" height="210" as="geometry" />
        </mxCell>
        <mxCell id="3_emPoVOIaigbRrFIrpy-16" style="edgeStyle=orthogonalEdgeStyle;rounded=0;orthogonalLoop=1;jettySize=auto;html=1;entryX=0.5;entryY=1;entryDx=0;entryDy=0;" edge="1" parent="1" source="3_emPoVOIaigbRrFIrpy-5" target="3_emPoVOIaigbRrFIrpy-3">
          <mxGeometry relative="1" as="geometry">
            <Array as="points">
              <mxPoint x="409" y="380" />
              <mxPoint x="206" y="380" />
            </Array>
          </mxGeometry>
        </mxCell>
        <mxCell id="3_emPoVOIaigbRrFIrpy-5" value="Student" style="swimlane;fontStyle=1;align=center;verticalAlign=top;childLayout=stackLayout;horizontal=1;startSize=26;horizontalStack=0;resizeParent=1;resizeParentMax=0;resizeLast=0;collapsible=1;marginBottom=0;whiteSpace=wrap;html=1;" vertex="1" parent="1">
          <mxGeometry x="324" y="140" width="170" height="210" as="geometry" />
        </mxCell>
        <mxCell id="3_emPoVOIaigbRrFIrpy-6" value="    + Name: string&lt;br/&gt;    + Password: string&lt;br/&gt;    + SubscribedCourses: List&amp;lt;Course&amp;gt;" style="text;strokeColor=none;fillColor=none;align=left;verticalAlign=top;spacingLeft=4;spacingRight=4;overflow=hidden;rotatable=0;points=[[0,0.5],[1,0.5]];portConstraint=eastwest;whiteSpace=wrap;html=1;" vertex="1" parent="3_emPoVOIaigbRrFIrpy-5">
          <mxGeometry y="26" width="170" height="64" as="geometry" />
        </mxCell>
        <mxCell id="3_emPoVOIaigbRrFIrpy-7" value="" style="line;strokeWidth=1;fillColor=none;align=left;verticalAlign=middle;spacingTop=-1;spacingLeft=3;spacingRight=3;rotatable=0;labelPosition=right;points=[];portConstraint=eastwest;strokeColor=inherit;" vertex="1" parent="3_emPoVOIaigbRrFIrpy-5">
          <mxGeometry y="90" width="170" height="8" as="geometry" />
        </mxCell>
        <mxCell id="3_emPoVOIaigbRrFIrpy-8" value="    + Student(name: string, password: string)&lt;br/&gt;    + SubscribeToCourse(course: Course)&amp;nbsp;&lt;div&gt;+ CancelCourse(course: Course)&amp;nbsp;&lt;/div&gt;&lt;div&gt;+ GetCourses()&lt;/div&gt;" style="text;strokeColor=none;fillColor=none;align=left;verticalAlign=top;spacingLeft=4;spacingRight=4;overflow=hidden;rotatable=0;points=[[0,0.5],[1,0.5]];portConstraint=eastwest;whiteSpace=wrap;html=1;" vertex="1" parent="3_emPoVOIaigbRrFIrpy-5">
          <mxGeometry y="98" width="170" height="112" as="geometry" />
        </mxCell>
        <mxCell id="3_emPoVOIaigbRrFIrpy-9" value="System" style="swimlane;fontStyle=1;align=center;verticalAlign=top;childLayout=stackLayout;horizontal=1;startSize=26;horizontalStack=0;resizeParent=1;resizeParentMax=0;resizeLast=0;collapsible=1;marginBottom=0;whiteSpace=wrap;html=1;" vertex="1" parent="1">
          <mxGeometry x="334" y="-290" width="160" height="330" as="geometry" />
        </mxCell>
        <mxCell id="3_emPoVOIaigbRrFIrpy-11" value="" style="line;strokeWidth=1;fillColor=none;align=left;verticalAlign=middle;spacingTop=-1;spacingLeft=3;spacingRight=3;rotatable=0;labelPosition=right;points=[];portConstraint=eastwest;strokeColor=inherit;" vertex="1" parent="3_emPoVOIaigbRrFIrpy-9">
          <mxGeometry y="26" width="160" height="8" as="geometry" />
        </mxCell>
        <mxCell id="3_emPoVOIaigbRrFIrpy-12" value="+ RegisterTeacher(name: string, password: string, teachers: List&amp;lt;Teacher&amp;gt;)&lt;br/&gt;    + RegisterStudent(name: string, password: string, students: List&amp;lt;Student&amp;gt;)&lt;br/&gt;    + AuthenticateUser(login: string, password: string, teachers: List&amp;lt;Teacher&amp;gt;, students: List&amp;lt;Student): object&lt;br/&gt;    + RemoveTeacher(name: string, teachers: List&amp;lt;Teacher&amp;gt;)&lt;br/&gt;    + RemoveStudent(name: string, students: List&amp;lt;Student&amp;gt;)&lt;br/&gt;    + RemoveCourse(name: string, courses: List&amp;lt;Course&amp;gt;)" style="text;strokeColor=none;fillColor=none;align=left;verticalAlign=top;spacingLeft=4;spacingRight=4;overflow=hidden;rotatable=0;points=[[0,0.5],[1,0.5]];portConstraint=eastwest;whiteSpace=wrap;html=1;" vertex="1" parent="3_emPoVOIaigbRrFIrpy-9">
          <mxGeometry y="34" width="160" height="296" as="geometry" />
        </mxCell>
        <mxCell id="3_emPoVOIaigbRrFIrpy-13" style="edgeStyle=orthogonalEdgeStyle;rounded=0;orthogonalLoop=1;jettySize=auto;html=1;entryX=0.5;entryY=0;entryDx=0;entryDy=0;" edge="1" parent="1" source="3_emPoVOIaigbRrFIrpy-12" target="3_emPoVOIaigbRrFIrpy-5">
          <mxGeometry relative="1" as="geometry">
            <Array as="points">
              <mxPoint x="414" y="20" />
              <mxPoint x="414" y="20" />
            </Array>
          </mxGeometry>
        </mxCell>
        <mxCell id="3_emPoVOIaigbRrFIrpy-14" style="edgeStyle=orthogonalEdgeStyle;rounded=0;orthogonalLoop=1;jettySize=auto;html=1;entryX=0.5;entryY=0;entryDx=0;entryDy=0;" edge="1" parent="1" source="3_emPoVOIaigbRrFIrpy-12" target="3_emPoVOIaigbRrFIrpy-3">
          <mxGeometry relative="1" as="geometry" />
        </mxCell>
        <mxCell id="3_emPoVOIaigbRrFIrpy-15" style="edgeStyle=orthogonalEdgeStyle;rounded=0;orthogonalLoop=1;jettySize=auto;html=1;entryX=0.5;entryY=0;entryDx=0;entryDy=0;" edge="1" parent="1" source="3_emPoVOIaigbRrFIrpy-12" target="3_emPoVOIaigbRrFIrpy-4">
          <mxGeometry relative="1" as="geometry" />
        </mxCell>
      </root>
    </mxGraphModel>
  </diagram>
</mxfile>
